<?xml version="1.0" encoding="UTF-8"?>
<svg xmlns="http://www.w3.org/2000/svg" width="1200" height="600" viewBox="0 0 1200 600" style="background:#0b1120;font-family:'Inter',sans-serif;">
  <defs>
    <linearGradient id="tableGradient" x1="0" y1="0" x2="1" y2="1">
      <stop offset="0%" stop-color="#111827" />
      <stop offset="100%" stop-color="#020617" />
    </linearGradient>
  </defs>
  <rect width="1200" height="600" fill="#020617" />
  <g transform="translate(80,80)">
    <rect width="1040" height="440" rx="24" fill="url(#tableGradient)" stroke="#1e293b" stroke-width="2" />
    <g transform="translate(40,40)">
      <text x="0" y="0" fill="#38bdf8" font-size="26" font-weight="600">Active Alerts</text>
      <text x="0" y="40" fill="#94a3b8" font-size="18">IOC matches scored by severity and enriched with context</text>
    </g>
    <g transform="translate(40,120)">
      <rect width="960" height="60" rx="16" fill="#0f172a" />
      <g transform="translate(0,0)">
        <text x="20" y="38" fill="#f8fafc" font-size="20" font-weight="600">Indicator</text>
      </g>
      <g transform="translate(230,0)">
        <text x="0" y="38" fill="#f8fafc" font-size="20" font-weight="600">Source</text>
      </g>
      <g transform="translate(420,0)">
        <text x="0" y="38" fill="#f8fafc" font-size="20" font-weight="600">Severity</text>
      </g>
      <g transform="translate(600,0)">
        <text x="0" y="38" fill="#f8fafc" font-size="20" font-weight="600">Message</text>
      </g>
      <g transform="translate(830,0)">
        <text x="0" y="38" fill="#f8fafc" font-size="20" font-weight="600">Last Seen</text>
      </g>
    </g>
    <g transform="translate(40,200)">
      <rect width="960" height="70" rx="16" fill="#111c33" stroke="#38bdf8" stroke-width="2" />
      <text x="20" y="42" fill="#f8fafc" font-size="20" font-weight="600">203.0.113.7</text>
      <text x="250" y="42" fill="#38bdf8" font-size="20">SSH</text>
      <rect x="420" y="20" width="120" height="32" rx="16" fill="#ef4444" />
      <text x="480" y="42" text-anchor="middle" fill="#f8fafc" font-size="18" font-weight="700">CRITICAL</text>
      <text x="600" y="42" fill="#94a3b8" font-size="18">IOC match for brute-force IP</text>
      <text x="830" y="42" fill="#e2e8f0" font-size="18">2025-11-14T20:31Z</text>
    </g>
    <g transform="translate(40,290)">
      <rect width="960" height="70" rx="16" fill="#111c33" stroke="#fb923c" stroke-width="2" />
      <text x="20" y="42" fill="#f8fafc" font-size="20" font-weight="600">198.51.100.24</text>
      <text x="250" y="42" fill="#fb923c" font-size="20">Apache</text>
      <rect x="420" y="20" width="120" height="32" rx="16" fill="#f97316" />
      <text x="480" y="42" text-anchor="middle" fill="#0f172a" font-size="18" font-weight="700">HIGH</text>
      <text x="600" y="42" fill="#94a3b8" font-size="18">Suspicious scanning activity</text>
      <text x="830" y="42" fill="#e2e8f0" font-size="18">2025-11-14T19:58Z</text>
    </g>
    <g transform="translate(40,380)">
      <rect width="960" height="70" rx="16" fill="#111c33" stroke="#22c55e" stroke-width="2" />
      <text x="20" y="42" fill="#f8fafc" font-size="20" font-weight="600">192.0.2.50</text>
      <text x="250" y="42" fill="#22c55e" font-size="20">System</text>
      <rect x="420" y="20" width="120" height="32" rx="16" fill="#22c55e" />
      <text x="480" y="42" text-anchor="middle" fill="#0f172a" font-size="18" font-weight="700">MEDIUM</text>
      <text x="600" y="42" fill="#94a3b8" font-size="18">IOC match in historical logs</text>
      <text x="830" y="42" fill="#e2e8f0" font-size="18">2025-11-14T18:20Z</text>
    </g>
  </g>
</svg>
