<?xml version="1.0" encoding="UTF-8"?>
<svg xmlns="http://www.w3.org/2000/svg" width="1600" height="400" viewBox="0 0 1600 400" style="background:#020617; font-family:'Inter',sans-serif;">
  <defs>
    <linearGradient id="bg" x1="0" y1="0" x2="1" y2="1">
      <stop offset="0%" stop-color="#020617" />
      <stop offset="50%" stop-color="#0f172a" />
      <stop offset="100%" stop-color="#020617" />
    </linearGradient>
    <pattern id="grid" width="40" height="40" patternUnits="userSpaceOnUse">
      <path d="M40 0 L0 0 0 40" fill="none" stroke="#1e293b" stroke-width="1" opacity="0.35" />
    </pattern>
    <linearGradient id="accent" x1="0" y1="0" x2="1" y2="1">
      <stop offset="0%" stop-color="#1d4ed8" />
      <stop offset="100%" stop-color="#0ea5e9" />
    </linearGradient>
  </defs>
  <rect width="1600" height="400" fill="url(#bg)" />
  <rect width="1600" height="400" fill="url(#grid)" opacity="0.35" />
  <g transform="translate(120,120)">
    <text x="0" y="0" fill="#38bdf8" font-size="26" font-weight="500" letter-spacing="6">CYBER DEFENSE PLATFORM</text>
    <text x="0" y="90" fill="#f8fafc" font-size="96" font-weight="800" letter-spacing="4">CyberSentinel</text>
    <text x="0" y="160" fill="#94a3b8" font-size="32" font-weight="500">Threat Intel · Log Correlation · SOC Analytics</text>
    <g transform="translate(0,220)">
      <rect width="420" height="64" rx="32" fill="url(#accent)" />
      <text x="30" y="42" fill="#f8fafc" font-size="26" font-weight="600">Offensive/Defensive Security Engineering Showcase</text>
    </g>
  </g>
  <g transform="translate(1100,80)" opacity="0.75">
    <path d="M160 0 L300 80 L300 240 L160 320 L20 240 L20 80 Z" fill="#0f172a" stroke="#38bdf8" stroke-width="2" />
    <path d="M160 60 L240 105 L240 215 L160 260 L80 215 L80 105 Z" fill="#1d4ed8" opacity="0.5" />
    <circle cx="160" cy="160" r="36" fill="#0ea5e9" />
    <path d="M160 120 L160 160 L190 180" stroke="#020617" stroke-width="12" stroke-linecap="round" stroke-linejoin="round" />
  </g>
</svg>
