<?xml version="1.0" encoding="UTF-8"?>
<svg xmlns="http://www.w3.org/2000/svg" width="1440" height="900" viewBox="0 0 1440 900" style="background:#0b1120;font-family:'Inter',sans-serif;">
  <defs>
    <linearGradient id="panelGradient" x1="0" y1="0" x2="1" y2="1">
      <stop offset="0%" stop-color="#111827" />
      <stop offset="100%" stop-color="#020617" />
    </linearGradient>
  </defs>
  <rect width="1440" height="900" fill="#020617" />
  <g transform="translate(80,60)">
    <rect width="1280" height="780" rx="28" fill="url(#panelGradient)" stroke="#1e293b" stroke-width="2" />
    <g transform="translate(40,40)">
      <text x="0" y="0" fill="#38bdf8" font-size="26" font-weight="600">CyberSentinel Dashboard</text>
      <text x="0" y="48" fill="#94a3b8" font-size="20">Live SOC overview with KPI tiles and interactive controls</text>
    </g>
    <g transform="translate(40,120)">
      <rect width="1200" height="140" rx="20" fill="#111c33" stroke="#1f2937" />
      <g transform="translate(40,40)">
        <rect width="200" height="60" rx="16" fill="#1d4ed8" />
        <text x="100" y="38" text-anchor="middle" fill="#f8fafc" font-size="22" font-weight="600">Fetch Intel</text>
      </g>
      <g transform="translate(280,40)">
        <rect width="200" height="60" rx="16" fill="#2563eb" />
        <text x="100" y="38" text-anchor="middle" fill="#f8fafc" font-size="22" font-weight="600">Parse Logs</text>
      </g>
      <g transform="translate(520,40)">
        <rect width="200" height="60" rx="16" fill="#2dd4bf" />
        <text x="100" y="38" text-anchor="middle" fill="#0f172a" font-size="22" font-weight="700">Run Correlation</text>
      </g>
      <g transform="translate(760,40)">
        <rect width="220" height="60" rx="16" fill="#facc15" />
        <text x="110" y="38" text-anchor="middle" fill="#0f172a" font-size="22" font-weight="700">Refresh Workflow</text>
      </g>
    </g>
    <g transform="translate(40,300)">
      <g>
        <rect width="360" height="160" rx="20" fill="#0f172a" stroke="#1d4ed8" />
        <text x="40" y="60" fill="#38bdf8" font-size="20" font-weight="600">SSH Failures</text>
        <text x="40" y="110" fill="#f8fafc" font-size="44" font-weight="800">128</text>
      </g>
      <g transform="translate(420,0)">
        <rect width="360" height="160" rx="20" fill="#0f172a" stroke="#22c55e" />
        <text x="40" y="60" fill="#86efac" font-size="20" font-weight="600">Apache Requests</text>
        <text x="40" y="110" fill="#f8fafc" font-size="44" font-weight="800">8.6k</text>
      </g>
      <g transform="translate(840,0)">
        <rect width="360" height="160" rx="20" fill="#0f172a" stroke="#f97316" />
        <text x="40" y="60" fill="#f97316" font-size="20" font-weight="600">Active Alerts</text>
        <text x="40" y="110" fill="#f8fafc" font-size="44" font-weight="800">4</text>
      </g>
    </g>
    <g transform="translate(40,500)">
      <rect width="760" height="260" rx="24" fill="#0f172a" stroke="#1e293b" />
      <text x="40" y="60" fill="#94a3b8" font-size="22" font-weight="600">Failures Over Time</text>
      <polyline points="80,200 160,120 240,140 320,80 400,110 480,60 560,90 640,40" fill="none" stroke="#38bdf8" stroke-width="6" stroke-linecap="round" stroke-linejoin="round" />
      <g transform="translate(700,200)">
        <circle r="12" fill="#38bdf8" />
        <text x="20" y="8" fill="#cbd5f5" font-size="18">Spike detected</text>
      </g>
    </g>
    <g transform="translate(820,500)">
      <rect width="420" height="260" rx="24" fill="#0f172a" stroke="#1e293b" />
      <text x="40" y="60" fill="#94a3b8" font-size="22" font-weight="600">Top Offending IPs</text>
      <g transform="translate(40,100)">
        <rect width="340" height="40" rx="12" fill="#111c33" />
        <text x="20" y="26" fill="#e2e8f0" font-size="18">203.0.113.7</text>
        <rect x="220" y="10" width="96" height="20" rx="10" fill="#38bdf8" />
      </g>
      <g transform="translate(40,160)">
        <rect width="340" height="40" rx="12" fill="#111c33" />
        <text x="20" y="26" fill="#e2e8f0" font-size="18">198.51.100.24</text>
        <rect x="220" y="10" width="72" height="20" rx="10" fill="#f97316" />
      </g>
      <g transform="translate(40,220)">
        <rect width="340" height="40" rx="12" fill="#111c33" />
        <text x="20" y="26" fill="#e2e8f0" font-size="18">192.0.2.50</text>
        <rect x="220" y="10" width="52" height="20" rx="10" fill="#22c55e" />
      </g>
    </g>
  </g>
</svg>
